<?xml version="1.0" encoding="utf-8"?>
<!-- Generator: Adobe Illustrator 15.0.0, SVG Export Plug-In . SVG Version: 6.00 Build 0)  -->
<!DOCTYPE svg PUBLIC "-//W3C//DTD SVG 1.1//EN" "http://www.w3.org/Graphics/SVG/1.1/DTD/svg11.dtd">
<svg version="1.1" id="Layer_1" xmlns="http://www.w3.org/2000/svg" xmlns:xlink="http://www.w3.org/1999/xlink" x="0px" y="0px"
	 width="300px" height="100px" viewBox="0 0 300 100" enable-background="new 0 0 300 100" xml:space="preserve">
<path fill="#23827E" d="M71.226,27.087c-3.013-2.722-7.262-4.081-12.748-4.081h-7.405H35.852l-4.586,11.613v21.438h-2.019
	l1.001-18.859l-2.711,6.863l-2.69-6.815l1.001,18.811h-2.025L23.82,34.65l-4.598-11.645H4.042v55.003h13.559V57.427
	c0-5.598-0.241-10.88-0.725-15.85h1.065c0.599,2.629,1.778,6.283,3.541,10.961l6.054,16.049l6.098-16.049
	c1.763-4.654,2.943-8.307,3.541-10.961h1.021c-0.455,5.363-0.681,10.646-0.681,15.85v20.582h13.558V33.612h4.489
	c2.067,0,3.617,0.461,4.65,1.38c1.031,0.921,1.548,2.312,1.548,4.18c0,1.972-0.67,3.503-2.015,4.592
	c-1.346,1.092-3.15,1.637-5.415,1.637l-2.192,0.003l0.457,10.801h3.361c4.824,0,8.832-0.966,12.022-2.898
	c3.192-1.931,5.286-4.204,6.279-6.82c0.993-2.615,1.49-5.226,1.49-7.827C75.746,33.666,74.239,29.807,71.226,27.087z"/>
<g>
	<path fill="#525252" d="M92.842,24.159h3.826l2.922,13.539c0.358,1.69,0.684,3.385,0.978,5.083c0.293,1.698,0.562,3.478,0.806,5.34
		c0.029-0.244,0.05-0.433,0.064-0.57c0.014-0.136,0.029-0.232,0.043-0.29l0.624-3.804l0.559-3.61l0.494-2.385l2.601-13.303h3.868
		l3.052,33.181h-4.277l-0.752-11.261c-0.029-0.573-0.054-1.067-0.075-1.483s-0.032-0.759-0.032-1.032l-0.193-4.448l-0.107-4.083
		c0-0.028-0.004-0.089-0.011-0.183c-0.008-0.093-0.019-0.218-0.032-0.376l-0.107,0.666c-0.115,0.788-0.219,1.476-0.312,2.063
		c-0.093,0.588-0.175,1.082-0.247,1.483l-0.559,3.03l-0.215,1.139l-2.794,14.484h-3.009l-2.622-12.507
		c-0.358-1.647-0.677-3.32-0.957-5.018c-0.279-1.698-0.534-3.478-0.763-5.34l-1.29,22.866h-4.212L92.842,24.159z"/>
	<path fill="#525252" d="M128.839,35.098V57.34h-4.105v-2.858c-0.587,1.218-1.175,2.056-1.762,2.515s-1.361,0.688-2.321,0.688
		c-1.848,0-3.202-0.945-4.062-2.836c-0.86-1.892-1.29-4.857-1.29-8.897c0-3.854,0.43-6.687,1.29-8.499
		c0.859-1.812,2.213-2.719,4.062-2.719c1.69,0,3.052,0.96,4.083,2.88v-2.515H128.839z M119.555,46.123
		c0,2.922,0.193,4.964,0.581,6.125c0.401,1.161,1.103,1.741,2.106,1.741c0.917,0,1.583-0.602,1.999-1.805
		c0.416-1.29,0.623-3.273,0.623-5.953c0-2.693-0.208-4.685-0.623-5.975c-0.416-1.203-1.082-1.805-1.999-1.805
		c-0.975,0-1.669,0.573-2.084,1.719C119.755,41.23,119.555,43.214,119.555,46.123z"/>
	<path fill="#525252" d="M133.502,35.098h4.105v2.772c0.702-1.175,1.396-1.999,2.084-2.472c0.688-0.473,1.597-0.745,2.729-0.816
		v4.298c-0.287-0.043-0.53-0.064-0.73-0.064c-1.476,0-2.529,0.38-3.159,1.139c-0.616,0.745-0.924,2.049-0.924,3.911V57.34h-4.105
		V35.098z"/>
	<path fill="#525252" d="M145.343,20.828h4.105V57.34h-4.105V20.828z"/>
	<path fill="#525252" d="M167.242,46.402c0,7.521-2.329,11.282-6.984,11.282c-4.656,0-6.984-3.818-6.984-11.454
		c0-7.665,2.321-11.498,6.963-11.498c1.204,0,2.246,0.229,3.127,0.688c0.881,0.459,1.608,1.168,2.181,2.128
		c0.573,0.96,0.999,2.17,1.279,3.632C167.103,42.641,167.242,44.382,167.242,46.402z M162.987,46.294
		c0-2.923-0.193-4.957-0.58-6.104c-0.387-1.161-1.075-1.741-2.063-1.741c-0.975,0-1.669,0.573-2.084,1.719
		c-0.387,1.146-0.581,3.145-0.581,5.996s0.193,4.842,0.581,5.974c0.415,1.146,1.11,1.719,2.084,1.719
		c0.974,0,1.655-0.566,2.042-1.698C162.786,51.101,162.987,49.146,162.987,46.294z"/>
	<path fill="#525252" d="M171.067,35.098h4.105v2.558c1.174-1.948,2.693-2.923,4.556-2.923c1.805,0,3.095,0.709,3.869,2.127
		c0.43,0.803,0.645,2.357,0.645,4.664V57.34h-4.104l-0.021-14.872c0-1.504-0.18-2.571-0.538-3.202
		c-0.358-0.63-0.974-0.946-1.848-0.946c-0.473,0-0.87,0.083-1.193,0.247c-0.322,0.165-0.583,0.43-0.784,0.795
		c-0.201,0.365-0.348,0.842-0.44,1.429c-0.093,0.587-0.14,1.311-0.14,2.17V57.34h-4.105V35.098z"/>
	<path fill="#525252" d="M198.231,24.159h5.888c2.838,0,4.9,0.716,6.189,2.149c1.291,1.447,1.936,3.739,1.936,6.877
		c0,4.413-1.297,7.264-3.891,8.553c-1.305,0.588-3.188,0.881-5.652,0.881V57.34h-4.47V24.159z M202.701,38.794
		c1.85,0,3.123-0.372,3.826-1.117c0.717-0.759,1.074-2.106,1.074-4.041c0-1.977-0.344-3.424-1.031-4.341
		c-0.688-0.917-1.77-1.375-3.246-1.375h-0.623V38.794z"/>
	<path fill="#525252" d="M215.446,20.828h4.104v16.827c1.175-1.948,2.693-2.923,4.556-2.923c1.806,0,3.095,0.709,3.868,2.127
		c0.43,0.803,0.645,2.357,0.645,4.664V57.34h-4.104l-0.021-14.872c0-1.504-0.179-2.571-0.537-3.202s-0.975-0.946-1.848-0.946
		c-0.474,0-0.871,0.083-1.193,0.247c-0.322,0.165-0.584,0.43-0.784,0.795c-0.201,0.365-0.348,0.842-0.44,1.429
		c-0.094,0.587-0.14,1.311-0.14,2.17V57.34h-4.104V20.828z"/>
	<path fill="#525252" d="M235.195,25.642c0.745,0,1.39,0.272,1.935,0.816c0.544,0.545,0.816,1.197,0.816,1.956
		c0,0.774-0.272,1.433-0.816,1.978c-0.545,0.544-1.204,0.816-1.978,0.816s-1.433-0.272-1.977-0.816
		c-0.53-0.53-0.796-1.196-0.796-1.999c0-0.745,0.272-1.389,0.817-1.934C233.784,25.915,234.45,25.642,235.195,25.642z
		 M233.262,35.098h4.126V57.34h-4.126V35.098z"/>
	<path fill="#525252" d="M242.008,20.828h4.104V57.34h-4.104V20.828z"/>
	<path fill="#525252" d="M250.776,20.828h4.104V57.34h-4.104V20.828z"/>
	<path fill="#525252" d="M261.478,25.642c0.745,0,1.39,0.272,1.935,0.816c0.544,0.545,0.816,1.197,0.816,1.956
		c0,0.774-0.272,1.433-0.816,1.978c-0.545,0.544-1.204,0.816-1.978,0.816s-1.433-0.272-1.977-0.816
		c-0.53-0.53-0.796-1.196-0.796-1.999c0-0.745,0.272-1.389,0.817-1.934C260.066,25.915,260.732,25.642,261.478,25.642z
		 M259.544,35.098h4.126V57.34h-4.126V35.098z"/>
	<path fill="#525252" d="M268.291,66.452V35.098h4.104v2.88c0.572-1.218,1.16-2.063,1.762-2.536c0.603-0.473,1.39-0.709,2.364-0.709
		c1.834,0,3.177,0.949,4.029,2.848s1.279,4.867,1.279,8.908c0,3.954-0.438,6.798-1.312,8.532c-0.859,1.776-2.242,2.665-4.147,2.665
		c-0.917,0-1.669-0.208-2.257-0.623c-0.286-0.201-0.573-0.487-0.859-0.86c-0.287-0.372-0.573-0.824-0.859-1.354v11.604H268.291z
		 M277.574,46.327c0-3.019-0.2-5.065-0.602-6.138c-0.387-1.159-1.082-1.738-2.084-1.738c-0.946,0-1.619,0.601-2.021,1.803
		c-0.401,1.116-0.602,3.105-0.602,5.966s0.2,4.85,0.602,5.966c0.415,1.188,1.089,1.781,2.021,1.781c0.974,0,1.668-0.572,2.084-1.717
		C277.374,51.191,277.574,49.217,277.574,46.327z"/>
	<path fill="#525252" d="M294.251,35.555v3.863c-1.003-0.745-2.056-1.118-3.159-1.118c-0.372,0-0.717,0.064-1.031,0.193
		c-0.315,0.129-0.591,0.304-0.827,0.526c-0.236,0.222-0.423,0.487-0.559,0.794c-0.137,0.307-0.205,0.633-0.205,0.977
		c0,1.059,0.96,2.319,2.88,3.778c0.774,0.601,1.419,1.16,1.935,1.675s0.909,1.001,1.182,1.459c0.559,0.902,0.838,2.04,0.838,3.414
		c0,1.989-0.58,3.584-1.74,4.787c-1.146,1.188-2.687,1.782-4.62,1.782c-1.189,0-2.394-0.353-3.61-1.059v-3.991
		c1.188,0.889,2.313,1.333,3.374,1.333c1.876,0,2.814-0.923,2.814-2.769c0-0.687-0.172-1.281-0.516-1.782
		c-0.157-0.243-0.408-0.526-0.752-0.848c-0.344-0.322-0.767-0.683-1.268-1.084c-1.734-1.345-2.909-2.476-3.524-3.392
		c-0.603-0.944-0.903-2.082-0.903-3.413c0-1.789,0.552-3.256,1.655-4.401c1.117-1.13,2.571-1.696,4.362-1.696
		C291.837,34.582,293.062,34.906,294.251,35.555z"/>
</g>
<g>
	<path fill="#257D81" d="M119.063,61.415h2.192v11.723c0,1.196,0.107,1.992,0.322,2.386c0.222,0.394,0.659,0.591,1.311,0.591
		s1.082-0.172,1.29-0.516c0.215-0.351,0.322-1.064,0.322-2.139V61.415h2.192V73.46c0,1.805-0.276,3.027-0.827,3.664
		c-0.659,0.724-1.666,1.085-3.02,1.085c-1.49,0-2.54-0.465-3.148-1.397c-0.423-0.637-0.634-1.862-0.634-3.675V61.415z"/>
	<path fill="#257D81" d="M133.43,67.113v1.931c-0.501-0.373-1.028-0.559-1.58-0.559c-0.186,0-0.358,0.032-0.516,0.097
		c-0.158,0.064-0.295,0.152-0.414,0.263s-0.211,0.243-0.279,0.397c-0.068,0.154-0.103,0.317-0.103,0.489
		c0,0.529,0.48,1.159,1.44,1.889c0.387,0.301,0.709,0.58,0.967,0.837c0.258,0.257,0.455,0.501,0.591,0.73
		c0.279,0.451,0.419,1.02,0.419,1.707c0,0.995-0.29,1.792-0.87,2.394c-0.573,0.594-1.343,0.891-2.31,0.891
		c-0.595,0-1.197-0.176-1.805-0.529v-1.996c0.594,0.444,1.157,0.666,1.687,0.666c0.938,0,1.407-0.461,1.407-1.385
		c0-0.343-0.086-0.64-0.258-0.891c-0.079-0.122-0.204-0.263-0.376-0.424c-0.172-0.161-0.383-0.342-0.634-0.542
		c-0.867-0.672-1.455-1.237-1.762-1.695c-0.301-0.473-0.452-1.042-0.452-1.707c0-0.894,0.276-1.628,0.828-2.2
		c0.559-0.565,1.286-0.848,2.181-0.848C132.223,66.626,132.835,66.789,133.43,67.113z"/>
	<path fill="#257D81" d="M139.898,74.256h1.913c-0.15,2.615-1.225,3.922-3.224,3.922c-0.595,0-1.105-0.111-1.531-0.333
		c-0.427-0.222-0.779-0.566-1.059-1.032c-0.279-0.465-0.485-1.057-0.618-1.773c-0.133-0.716-0.199-1.569-0.199-2.557
		c0-1.963,0.274-3.417,0.822-4.363c0.548-0.945,1.395-1.418,2.541-1.418c2.228,0,3.342,1.962,3.342,5.888v0.258h-4.695
		c0,2.378,0.473,3.567,1.418,3.567C139.469,76.416,139.898,75.696,139.898,74.256z M139.791,71.365
		c-0.086-1.167-0.219-1.934-0.397-2.299c-0.187-0.408-0.487-0.612-0.903-0.612c-0.422,0-0.724,0.204-0.902,0.612
		c-0.179,0.365-0.312,1.132-0.397,2.299H139.791z"/>
	<path fill="#257D81" d="M143.713,66.885h2.052v1.386c0.351-0.587,0.698-0.999,1.042-1.235c0.344-0.236,0.799-0.373,1.365-0.409
		v2.149c-0.143-0.021-0.265-0.032-0.365-0.032c-0.738,0-1.264,0.19-1.58,0.569c-0.308,0.373-0.462,1.024-0.462,1.956v6.737h-2.052
		V66.885z"/>
	<path fill="#257D81" d="M154.265,61.415h5.942v1.892H156.5v5.254h3.288v1.891H156.5v5.663h3.707v1.891h-5.942V61.415z"/>
	<path fill="#257D81" d="M161.066,66.885h2.428l0.978,2.149c0.115,0.251,0.222,0.514,0.322,0.79c0.1,0.276,0.19,0.568,0.269,0.876
		c0.058-0.272,0.125-0.534,0.204-0.785c0.079-0.25,0.168-0.498,0.269-0.741l0.14-0.322l0.806-1.966h2.16l-2.514,5.254l3.041,5.867
		h-2.45l-0.978-2.127c-0.48-0.996-0.763-1.791-0.849-2.386c-0.064,0.573-0.293,1.304-0.688,2.192l-0.989,2.321h-2.149l2.783-5.867
		L161.066,66.885z"/>
	<path fill="#257D81" d="M170.415,82.562V66.885h2.052v1.439c0.286-0.608,0.58-1.031,0.881-1.268
		c0.301-0.236,0.695-0.354,1.182-0.354c0.917,0,1.588,0.475,2.015,1.423c0.426,0.949,0.64,2.434,0.64,4.454
		c0,1.977-0.219,3.399-0.656,4.266c-0.43,0.889-1.121,1.333-2.074,1.333c-0.458,0-0.834-0.104-1.128-0.312
		c-0.143-0.1-0.287-0.244-0.43-0.43c-0.144-0.187-0.287-0.412-0.43-0.677v5.803H170.415z M175.056,72.499
		c0-1.509-0.1-2.532-0.301-3.069c-0.193-0.58-0.541-0.869-1.042-0.869c-0.473,0-0.81,0.3-1.01,0.901
		c-0.201,0.558-0.301,1.552-0.301,2.983s0.1,2.425,0.301,2.983c0.208,0.594,0.544,0.891,1.01,0.891c0.487,0,0.834-0.286,1.042-0.858
		C174.956,74.931,175.056,73.944,175.056,72.499z"/>
	<path fill="#257D81" d="M183.395,74.256h1.913c-0.15,2.615-1.225,3.922-3.224,3.922c-0.595,0-1.105-0.111-1.531-0.333
		c-0.427-0.222-0.779-0.566-1.059-1.032c-0.279-0.465-0.485-1.057-0.618-1.773c-0.133-0.716-0.199-1.569-0.199-2.557
		c0-1.963,0.274-3.417,0.822-4.363c0.548-0.945,1.395-1.418,2.541-1.418c2.228,0,3.342,1.962,3.342,5.888v0.258h-4.695
		c0,2.378,0.473,3.567,1.418,3.567C182.965,76.416,183.395,75.696,183.395,74.256z M183.287,71.365
		c-0.086-1.167-0.219-1.934-0.397-2.299c-0.187-0.408-0.487-0.612-0.903-0.612c-0.422,0-0.724,0.204-0.902,0.612
		c-0.179,0.365-0.312,1.132-0.397,2.299H183.287z"/>
	<path fill="#257D81" d="M187.209,66.885h2.052v1.386c0.351-0.587,0.698-0.999,1.042-1.235c0.344-0.236,0.799-0.373,1.365-0.409
		v2.149c-0.143-0.021-0.265-0.032-0.365-0.032c-0.738,0-1.264,0.19-1.58,0.569c-0.308,0.373-0.462,1.024-0.462,1.956v6.737h-2.052
		V66.885z"/>
	<path fill="#257D81" d="M194.097,62.157c0.373,0,0.695,0.136,0.967,0.408c0.272,0.272,0.408,0.598,0.408,0.978
		c0,0.387-0.136,0.716-0.408,0.988c-0.272,0.272-0.602,0.409-0.989,0.409s-0.716-0.136-0.988-0.409
		c-0.265-0.265-0.398-0.598-0.398-0.999c0-0.373,0.136-0.695,0.409-0.967C193.391,62.293,193.724,62.157,194.097,62.157z
		 M193.13,66.885h2.063v11.121h-2.063V66.885z"/>
	<path fill="#257D81" d="M201.803,74.256h1.912c-0.15,2.615-1.225,3.922-3.225,3.922c-0.594,0-1.104-0.111-1.531-0.333
		c-0.426-0.222-0.778-0.566-1.058-1.032c-0.279-0.465-0.485-1.057-0.618-1.773c-0.133-0.716-0.199-1.569-0.199-2.557
		c0-1.963,0.274-3.417,0.822-4.363c0.548-0.945,1.394-1.418,2.541-1.418c2.229,0,3.342,1.962,3.342,5.888v0.258h-4.696
		c0,2.378,0.473,3.567,1.418,3.567C201.371,76.416,201.803,75.696,201.803,74.256z M201.695,71.365
		c-0.086-1.167-0.219-1.934-0.398-2.299c-0.186-0.408-0.487-0.612-0.903-0.612c-0.424,0-0.725,0.204-0.902,0.612
		c-0.18,0.365-0.312,1.132-0.398,2.299H201.695z"/>
	<path fill="#257D81" d="M205.616,66.885h2.053v1.278c0.587-0.974,1.347-1.461,2.278-1.461c0.902,0,1.547,0.354,1.934,1.063
		c0.215,0.401,0.322,1.179,0.322,2.332v7.909h-2.052l-0.011-7.436c0-0.752-0.09-1.286-0.269-1.601
		c-0.18-0.315-0.487-0.473-0.925-0.473c-0.236,0-0.435,0.041-0.596,0.124c-0.161,0.082-0.292,0.215-0.393,0.397
		s-0.174,0.421-0.221,0.714c-0.046,0.294-0.069,0.656-0.069,1.085v7.188h-2.053V66.885z"/>
	<path fill="#257D81" d="M219.069,67.1v2.095c-0.287-0.351-0.631-0.526-1.032-0.526c-1.132,0-1.697,1.225-1.697,3.675
		c0,2.6,0.562,3.9,1.687,3.9c0.315,0,0.663-0.14,1.043-0.419v1.923c-0.545,0.286-1.097,0.43-1.655,0.43
		c-2.206,0-3.31-1.876-3.31-5.63c0-1.999,0.272-3.473,0.816-4.422c0.545-0.949,1.39-1.423,2.536-1.423
		C218.009,66.702,218.546,66.834,219.069,67.1z"/>
	<path fill="#257D81" d="M225.108,74.256h1.912c-0.15,2.615-1.225,3.922-3.224,3.922c-0.595,0-1.104-0.111-1.531-0.333
		c-0.426-0.222-0.778-0.566-1.059-1.032c-0.279-0.465-0.485-1.057-0.617-1.773c-0.133-0.716-0.199-1.569-0.199-2.557
		c0-1.963,0.274-3.417,0.822-4.363c0.548-0.945,1.395-1.418,2.541-1.418c2.228,0,3.342,1.962,3.342,5.888v0.258H222.4
		c0,2.378,0.473,3.567,1.418,3.567C224.678,76.416,225.108,75.696,225.108,74.256z M225.001,71.365
		c-0.086-1.167-0.219-1.934-0.398-2.299c-0.186-0.408-0.486-0.612-0.902-0.612c-0.423,0-0.724,0.204-0.902,0.612
		c-0.18,0.365-0.312,1.132-0.397,2.299H225.001z"/>
	<path fill="#257D81" d="M233.597,61.415h2.751c0.838,0,1.544,0.093,2.117,0.28c0.53,0.179,1.003,0.498,1.418,0.956
		c0.623,0.688,1.067,1.583,1.333,2.687c0.265,1.067,0.397,2.597,0.397,4.588c0,1.827-0.147,3.317-0.44,4.47
		c-0.287,1.103-0.76,1.945-1.419,2.525c-0.81,0.724-2.26,1.085-4.352,1.085h-1.806V61.415z M235.832,76.05
		c1.361,0,2.271-0.412,2.729-1.236c0.473-0.824,0.709-2.425,0.709-4.803c0-2.557-0.226-4.316-0.677-5.276
		c-0.451-0.959-1.279-1.439-2.482-1.439h-0.279V76.05z"/>
	<path fill="#257D81" d="M248.018,74.256h1.912c-0.15,2.615-1.225,3.922-3.224,3.922c-0.595,0-1.104-0.111-1.531-0.333
		c-0.426-0.222-0.778-0.566-1.059-1.032c-0.279-0.465-0.485-1.057-0.617-1.773c-0.133-0.716-0.199-1.569-0.199-2.557
		c0-1.963,0.274-3.417,0.822-4.363c0.548-0.945,1.395-1.418,2.541-1.418c2.228,0,3.342,1.962,3.342,5.888v0.258h-4.695
		c0,2.378,0.473,3.567,1.418,3.567C247.587,76.416,248.018,75.696,248.018,74.256z M247.91,71.365
		c-0.086-1.167-0.219-1.934-0.398-2.299c-0.186-0.408-0.486-0.612-0.902-0.612c-0.423,0-0.724,0.204-0.902,0.612
		c-0.18,0.365-0.312,1.132-0.397,2.299H247.91z"/>
	<path fill="#257D81" d="M256.13,67.113v1.931c-0.502-0.373-1.028-0.559-1.58-0.559c-0.187,0-0.358,0.032-0.516,0.097
		s-0.296,0.152-0.414,0.263s-0.211,0.243-0.279,0.397s-0.102,0.317-0.102,0.489c0,0.529,0.479,1.159,1.439,1.889
		c0.387,0.301,0.709,0.58,0.967,0.837c0.259,0.257,0.455,0.501,0.592,0.73c0.279,0.451,0.419,1.02,0.419,1.707
		c0,0.995-0.29,1.792-0.871,2.394c-0.572,0.594-1.343,0.891-2.31,0.891c-0.595,0-1.196-0.176-1.806-0.529v-1.996
		c0.595,0.444,1.157,0.666,1.688,0.666c0.938,0,1.407-0.461,1.407-1.385c0-0.343-0.086-0.64-0.258-0.891
		c-0.079-0.122-0.204-0.263-0.376-0.424c-0.172-0.161-0.384-0.342-0.634-0.542c-0.867-0.672-1.454-1.237-1.763-1.695
		c-0.301-0.473-0.451-1.042-0.451-1.707c0-0.894,0.275-1.628,0.827-2.2c0.56-0.565,1.286-0.848,2.182-0.848
		C254.922,66.626,255.535,66.789,256.13,67.113z"/>
	<path fill="#257D81" d="M259.268,62.157c0.372,0,0.694,0.136,0.967,0.408c0.272,0.272,0.408,0.598,0.408,0.978
		c0,0.387-0.136,0.716-0.408,0.988c-0.272,0.272-0.602,0.409-0.988,0.409c-0.388,0-0.717-0.136-0.989-0.409
		c-0.265-0.265-0.397-0.598-0.397-0.999c0-0.373,0.136-0.695,0.408-0.967C258.562,62.293,258.895,62.157,259.268,62.157z
		 M258.3,66.885h2.063v11.121H258.3V66.885z"/>
	<path fill="#257D81" d="M266.982,66.885h2.062V78.36c0,1.375-0.136,2.328-0.408,2.858c-0.501,0.974-1.508,1.461-3.02,1.461
		c-0.995,0-1.776-0.283-2.342-0.849c-0.573-0.573-0.86-1.343-0.86-2.31l0.011-0.344h1.988c0,1.182,0.44,1.773,1.321,1.773
		c0.48,0,0.806-0.15,0.978-0.452c0.18-0.287,0.27-0.856,0.27-1.708v-2.138c-0.438,1.018-1.107,1.526-2.01,1.526
		c-0.932,0-1.617-0.451-2.058-1.354c-0.44-0.902-0.661-2.313-0.661-4.233c0-2.034,0.211-3.535,0.634-4.502
		c0.416-0.924,1.107-1.386,2.074-1.386c0.458,0,0.831,0.111,1.117,0.333c0.287,0.222,0.588,0.616,0.903,1.182V66.885z
		 M267.015,72.547c0-2.658-0.459-3.986-1.376-3.986c-0.437,0-0.756,0.299-0.956,0.897c-0.201,0.598-0.301,1.557-0.301,2.875
		c0,1.397,0.104,2.425,0.312,3.084c0.215,0.609,0.573,0.913,1.074,0.913c0.473,0,0.799-0.272,0.979-0.816
		C266.925,75.004,267.015,74.016,267.015,72.547z"/>
	<path fill="#257D81" d="M271.365,66.885h2.053v1.278c0.587-0.974,1.347-1.461,2.278-1.461c0.902,0,1.547,0.354,1.934,1.063
		c0.215,0.401,0.322,1.179,0.322,2.332v7.909H275.9l-0.011-7.436c0-0.752-0.09-1.286-0.269-1.601
		c-0.18-0.315-0.487-0.473-0.925-0.473c-0.236,0-0.435,0.041-0.596,0.124c-0.161,0.082-0.292,0.215-0.393,0.397
		s-0.174,0.421-0.221,0.714c-0.046,0.294-0.069,0.656-0.069,1.085v7.188h-2.053V66.885z"/>
	<path fill="#257D81" d="M284.572,74.256h1.912c-0.15,2.615-1.225,3.922-3.224,3.922c-0.595,0-1.104-0.111-1.531-0.333
		c-0.426-0.222-0.778-0.566-1.059-1.032c-0.279-0.465-0.485-1.057-0.617-1.773c-0.133-0.716-0.199-1.569-0.199-2.557
		c0-1.963,0.274-3.417,0.822-4.363c0.548-0.945,1.395-1.418,2.541-1.418c2.228,0,3.342,1.962,3.342,5.888v0.258h-4.695
		c0,2.378,0.473,3.567,1.418,3.567C284.142,76.416,284.572,75.696,284.572,74.256z M284.465,71.365
		c-0.086-1.167-0.219-1.934-0.398-2.299c-0.186-0.408-0.486-0.612-0.902-0.612c-0.423,0-0.724,0.204-0.902,0.612
		c-0.18,0.365-0.312,1.132-0.397,2.299H284.465z"/>
	<path fill="#257D81" d="M288.386,66.885h2.053v1.386c0.351-0.587,0.698-0.999,1.042-1.235s0.799-0.373,1.365-0.409v2.149
		c-0.144-0.021-0.266-0.032-0.365-0.032c-0.738,0-1.265,0.19-1.58,0.569c-0.308,0.373-0.462,1.024-0.462,1.956v6.737h-2.053V66.885z
		"/>
</g>
<text transform="matrix(1 0 0 1 21.7163 343.3398)" fill="#525252" font-family="'Futura-CondensedMedium'" font-size="44.0123">Marlon Phillips</text>
<text transform="matrix(1 0 0 1 50.7847 364.0059)" fill="#257D81" font-family="'Futura-CondensedMedium'" font-size="22.0062">User Experience Designer</text>
</svg>
